<?xml version="1.0" encoding="UTF-8"?>
<svg id="Layer_1" xmlns="http://www.w3.org/2000/svg" version="1.1" viewBox="0 0 576.661 178.349">
  <!-- Generator: Adobe Illustrator 30.1.0, SVG Export Plug-In . SVG Version: 2.1.1 Build 136)  -->
  <style>
    .logo-primary { fill: var(--color-primary, #233876); }
    .logo-secondary { fill: var(--color-secondary, #0f9d8a); }
  </style>
  <g>
    <path d="M71.367,43.555c2.129,0,3.889.697,5.283,2.089,1.392,1.394,2.089,3.194,2.089,5.406v51.969c0,2.13-.697,3.912-2.089,5.344-1.394,1.434-3.154,2.15-5.283,2.15s-3.891-.716-5.283-2.15c-1.394-1.432-2.088-3.214-2.088-5.344v-6.021l2.703,1.106c0,1.065-.574,2.355-1.72,3.87-1.148,1.517-2.703,3.01-4.668,4.484-1.966,1.474-4.281,2.724-6.942,3.747-2.663,1.023-5.549,1.536-8.661,1.536-5.652,0-10.771-1.453-15.357-4.361-4.588-2.906-8.212-6.92-10.873-12.04-2.663-5.118-3.993-10.996-3.993-17.63,0-6.715,1.33-12.633,3.993-17.753,2.661-5.118,6.245-9.132,10.75-12.04,4.503-2.907,9.5-4.362,14.989-4.362,3.521,0,6.757.534,9.706,1.597,2.948,1.065,5.507,2.417,7.679,4.055,2.169,1.639,3.849,3.298,5.037,4.976,1.186,1.68,1.781,3.093,1.781,4.239l-4.423,1.597v-8.969c0-2.129.695-3.911,2.088-5.344,1.392-1.432,3.152-2.15,5.283-2.15ZM46.549,98.228c3.603,0,6.757-.9,9.46-2.703,2.703-1.801,4.811-4.258,6.327-7.372,1.515-3.112,2.273-6.592,2.273-10.443,0-3.932-.758-7.452-2.273-10.566-1.517-3.112-3.624-5.569-6.327-7.372-2.703-1.8-5.857-2.703-9.46-2.703-3.522,0-6.634.902-9.337,2.703-2.703,1.803-4.812,4.26-6.327,7.372-1.517,3.114-2.273,6.634-2.273,10.566,0,3.851.756,7.331,2.273,10.443,1.515,3.114,3.625,5.571,6.327,7.372,2.703,1.803,5.815,2.703,9.337,2.703Z" class="logo-primary"/>
    <path d="M128.74,43.555c5.732,0,10.873,1.455,15.419,4.362,4.545,2.908,8.149,6.901,10.812,11.979,2.661,5.08,3.993,10.977,3.993,17.691s-1.332,12.635-3.993,17.753c-2.663,5.12-6.226,9.134-10.689,12.04-4.465,2.908-9.481,4.361-15.05,4.361-3.277,0-6.348-.534-9.214-1.597-2.868-1.063-5.386-2.415-7.556-4.054-2.171-1.638-3.851-3.296-5.037-4.976-1.188-1.678-1.781-3.091-1.781-4.239l3.809-1.597v32.311c0,2.129-.697,3.911-2.089,5.345-1.394,1.432-3.154,2.149-5.283,2.149s-3.891-.696-5.283-2.088c-1.394-1.394-2.088-3.194-2.088-5.406V52.279c0-2.129.695-3.91,2.088-5.344,1.392-1.432,3.152-2.15,5.283-2.15s3.889.718,5.283,2.15c1.392,1.434,2.089,3.215,2.089,5.344v6.02l-2.089-1.105c0-1.064.572-2.354,1.72-3.87,1.146-1.515,2.703-3.029,4.668-4.546,1.966-1.515,4.239-2.764,6.819-3.747s5.302-1.475,8.17-1.475ZM126.897,57.07c-3.605,0-6.757.902-9.46,2.703-2.703,1.803-4.813,4.239-6.328,7.31-1.516,3.072-2.272,6.573-2.272,10.504,0,3.851.756,7.353,2.272,10.504,1.515,3.154,3.625,5.632,6.328,7.433,2.703,1.803,5.854,2.703,9.46,2.703s6.736-.9,9.398-2.703c2.661-1.801,4.75-4.279,6.266-7.433,1.515-3.152,2.272-6.653,2.272-10.504,0-3.931-.758-7.433-2.272-10.504-1.517-3.071-3.605-5.507-6.266-7.31-2.663-1.8-5.795-2.703-9.398-2.703Z" class="logo-primary"/>
    <path d="M205.894,43.555c5.732,0,10.873,1.455,15.419,4.362,4.545,2.908,8.149,6.901,10.812,11.979,2.661,5.08,3.993,10.977,3.993,17.691s-1.332,12.635-3.993,17.753c-2.663,5.12-6.226,9.134-10.689,12.04-4.465,2.908-9.481,4.361-15.05,4.361-3.277,0-6.348-.534-9.214-1.597-2.868-1.063-5.386-2.415-7.556-4.054-2.171-1.638-3.851-3.296-5.037-4.976-1.188-1.678-1.781-3.091-1.781-4.239l3.809-1.597v32.311c0,2.129-.697,3.911-2.089,5.345-1.394,1.432-3.154,2.149-5.283,2.149s-3.891-.696-5.283-2.088c-1.394-1.394-2.088-3.194-2.088-5.406V52.279c0-2.129.695-3.91,2.088-5.344,1.392-1.432,3.152-2.15,5.283-2.15s3.889.718,5.283,2.15c1.392,1.434,2.089,3.215,2.089,5.344v6.02l-2.089-1.105c0-1.064.572-2.354,1.72-3.87,1.146-1.515,2.703-3.029,4.668-4.546,1.966-1.515,4.239-2.764,6.819-3.747s5.302-1.475,8.17-1.475ZM204.052,57.07c-3.605,0-6.757.902-9.46,2.703-2.703,1.803-4.813,4.239-6.328,7.31-1.516,3.072-2.272,6.573-2.272,10.504,0,3.851.756,7.353,2.272,10.504,1.515,3.154,3.625,5.632,6.328,7.433,2.703,1.803,5.854,2.703,9.46,2.703s6.736-.9,9.398-2.703c2.661-1.801,4.75-4.279,6.266-7.433,1.515-3.152,2.272-6.653,2.272-10.504,0-3.931-.758-7.433-2.272-10.504-1.517-3.071-3.605-5.507-6.266-7.31-2.663-1.8-5.795-2.703-9.398-2.703Z" class="logo-primary"/>
    <path d="M264.988,103.019c0,2.13-.718,3.912-2.149,5.344-1.435,1.434-3.216,2.15-5.345,2.15-2.048,0-3.768-.716-5.16-2.15-1.394-1.432-2.088-3.214-2.088-5.344V27.092c0-2.129.716-3.91,2.15-5.344s3.214-2.15,5.345-2.15,3.87.718,5.222,2.15c1.351,1.434,2.026,3.215,2.026,5.344v75.927Z" class="logo-primary"/>
    <path d="M288.575,36.799c-2.785,0-4.751-.449-5.896-1.352-1.148-.9-1.721-2.498-1.721-4.792v-2.334c0-2.375.634-3.993,1.904-4.853,1.27-.86,3.214-1.29,5.836-1.29,2.866,0,4.872.451,6.021,1.352,1.146.902,1.72,2.5,1.72,4.792v2.334c0,2.376-.614,3.993-1.843,4.853-1.229.86-3.236,1.29-6.021,1.29ZM296.07,103.019c0,2.13-.697,3.912-2.089,5.344-1.394,1.434-3.154,2.15-5.283,2.15s-3.891-.716-5.282-2.15c-1.395-1.432-2.089-3.214-2.089-5.344v-50.741c0-2.129.694-3.91,2.089-5.344,1.392-1.432,3.151-2.15,5.282-2.15s3.89.718,5.283,2.15c1.392,1.434,2.089,3.215,2.089,5.344v50.741Z" class="logo-primary"/>
    <path d="M340.421,43.555c4.668,0,8.741.492,12.224,1.475,3.48.983,6.184,2.355,8.109,4.116,1.923,1.762,2.887,3.87,2.887,6.327,0,1.639-.491,3.175-1.475,4.607-.982,1.434-2.416,2.15-4.3,2.15-1.311,0-2.396-.185-3.256-.553-.859-.368-1.618-.839-2.272-1.413-.656-.572-1.435-1.106-2.335-1.597-.819-.492-2.069-.879-3.747-1.167-1.68-.286-2.929-.43-3.747-.43-4.177,0-7.721.902-10.627,2.703-2.908,1.803-5.141,4.239-6.696,7.31-1.557,3.072-2.334,6.615-2.334,10.627,0,3.932.799,7.433,2.396,10.504,1.598,3.071,3.809,5.509,6.635,7.31,2.826,1.803,6.081,2.703,9.768,2.703,2.046,0,3.809-.123,5.282-.369,1.475-.246,2.703-.614,3.687-1.106,1.146-.654,2.169-1.352,3.071-2.088.9-.737,2.251-1.106,4.054-1.106,2.129,0,3.767.676,4.915,2.027,1.146,1.352,1.72,3.01,1.72,4.976,0,2.048-1.148,3.913-3.44,5.59-2.294,1.68-5.304,3.031-9.03,4.054-3.728,1.023-7.761,1.536-12.102,1.536-6.471,0-12.082-1.494-16.831-4.484-4.751-2.989-8.416-7.064-10.996-12.224-2.58-5.16-3.87-10.935-3.87-17.323,0-6.715,1.371-12.633,4.116-17.753,2.743-5.118,6.552-9.132,11.426-12.04,4.872-2.907,10.462-4.362,16.771-4.362Z" class="logo-primary"/>
    <path d="M428.877,43.555c2.129,0,3.89.697,5.283,2.089,1.392,1.394,2.088,3.194,2.088,5.406v51.969c0,2.13-.696,3.912-2.088,5.344-1.394,1.434-3.154,2.15-5.283,2.15s-3.892-.716-5.283-2.15c-1.394-1.432-2.088-3.214-2.088-5.344v-6.021l2.702,1.106c0,1.065-.573,2.355-1.72,3.87-1.148,1.517-2.703,3.01-4.669,4.484-1.966,1.474-4.28,2.724-6.941,3.747-2.662,1.023-5.55,1.536-8.661,1.536-5.651,0-10.771-1.453-15.357-4.361-4.588-2.906-8.212-6.92-10.873-12.04-2.662-5.118-3.993-10.996-3.993-17.63,0-6.715,1.331-12.633,3.993-17.753,2.661-5.118,6.245-9.132,10.75-12.04,4.504-2.907,9.501-4.362,14.989-4.362,3.521,0,6.757.534,9.705,1.597,2.949,1.065,5.508,2.417,7.679,4.055,2.17,1.639,3.85,3.298,5.037,4.976,1.187,1.68,1.782,3.093,1.782,4.239l-4.423,1.597v-8.969c0-2.129.694-3.911,2.088-5.344,1.392-1.432,3.152-2.15,5.283-2.15ZM404.06,98.228c3.604,0,6.757-.9,9.46-2.703,2.703-1.801,4.811-4.258,6.327-7.372,1.515-3.112,2.273-6.592,2.273-10.443,0-3.932-.759-7.452-2.273-10.566-1.517-3.112-3.624-5.569-6.327-7.372-2.703-1.8-5.856-2.703-9.46-2.703-3.522,0-6.635.902-9.337,2.703-2.703,1.803-4.813,4.26-6.327,7.372-1.517,3.114-2.273,6.634-2.273,10.566,0,3.851.757,7.331,2.273,10.443,1.514,3.114,3.624,5.571,6.327,7.372,2.702,1.803,5.814,2.703,9.337,2.703Z" class="logo-primary"/>
    <path d="M487.357,43.555c6.061,0,10.668,1.271,13.822,3.809,3.151,2.54,5.323,5.918,6.511,10.136,1.187,4.219,1.782,8.907,1.782,14.067v31.452c0,2.13-.697,3.912-2.089,5.344-1.394,1.434-3.154,2.15-5.283,2.15s-3.891-.716-5.283-2.15c-1.394-1.432-2.088-3.214-2.088-5.344v-31.452c0-2.703-.35-5.139-1.045-7.31-.696-2.169-1.946-3.91-3.747-5.221-1.803-1.31-4.383-1.966-7.74-1.966-3.276,0-6.041.656-8.293,1.966-2.253,1.311-3.974,3.052-5.159,5.221-1.188,2.171-1.782,4.607-1.782,7.31v31.452c0,2.13-.696,3.912-2.088,5.344-1.395,1.434-3.154,2.15-5.283,2.15s-3.892-.716-5.283-2.15c-1.394-1.432-2.089-3.214-2.089-5.344v-50.741c0-2.129.695-3.91,2.089-5.344,1.392-1.432,3.152-2.15,5.283-2.15s3.889.718,5.283,2.15c1.392,1.434,2.088,3.215,2.088,5.344v5.283l-1.843-.368c.737-1.392,1.801-2.887,3.194-4.484,1.392-1.597,3.029-3.091,4.914-4.484,1.884-1.392,4.013-2.519,6.389-3.379,2.375-.86,4.955-1.29,7.74-1.29Z" class="logo-primary"/>
    <path d="M526.179,46.013h29.118c1.965,0,3.603.656,4.914,1.965,1.309,1.312,1.966,2.949,1.966,4.915,0,1.885-.657,3.461-1.966,4.73-1.312,1.271-2.949,1.904-4.914,1.904h-29.118c-1.966,0-3.604-.654-4.914-1.966-1.312-1.309-1.966-2.948-1.966-4.914,0-1.883.654-3.459,1.966-4.73,1.31-1.269,2.948-1.904,4.914-1.904ZM539.326,30.655c2.129,0,3.87.718,5.221,2.15,1.352,1.434,2.027,3.215,2.027,5.344v54.672c0,1.148.225,2.088.676,2.826.449.737,1.063,1.271,1.843,1.597.777.328,1.616.491,2.519.491.983,0,1.884-.184,2.703-.553.818-.369,1.761-.553,2.826-.553,1.146,0,2.19.534,3.133,1.597.94,1.065,1.413,2.54,1.413,4.423,0,2.294-1.25,4.177-3.748,5.651-2.499,1.474-5.181,2.211-8.047,2.211-1.72,0-3.624-.142-5.713-.43-2.089-.286-4.055-.983-5.897-2.088-1.843-1.106-3.378-2.805-4.606-5.099-1.229-2.292-1.844-5.446-1.844-9.46v-55.287c0-2.129.717-3.91,2.15-5.344,1.432-1.432,3.214-2.15,5.345-2.15Z" class="logo-primary"/>
  </g>
  <g>
    <path d="M438.833,136.942c-.078-.89-.263-1.704-.559-2.438-.402-.997-1-1.777-1.793-2.343-.792-.564-1.776-.848-2.953-.848s-2.186.288-3.024.865-1.479,1.328-1.923,2.255c-.377.787-.583,1.625-.639,2.509h10.892Z" class="logo-secondary"/>
    <path d="M539.547,114.472h-137.506c-12.227,0-22.139,9.912-22.139,22.139s9.912,22.139,22.139,22.139h137.506c12.227,0,22.139-9.912,22.139-22.139s-9.912-22.139-22.139-22.139ZM420.155,148.303h-3.146v-12.148c0-1.503-.394-2.68-1.18-3.53s-1.862-1.276-3.226-1.276c-.932,0-1.771.204-2.517.611-.746.408-1.335,1.003-1.766,1.783-.431.781-.646,1.73-.646,2.85v11.711h-3.146v-19.542h3.024l.013,3.632c.55-1.229,1.25-2.149,2.11-2.74,1.102-.758,2.393-1.137,3.872-1.137,1.317,0,2.47.271,3.461.813.99.541,1.763,1.357,2.315,2.446.554,1.09.831,2.462.831,4.117v12.41ZM442.039,139.598h-14.104c.045,1.26.282,2.353.733,3.26.5,1.009,1.203,1.771,2.105,2.29.903.519,1.949.778,3.139.778.769,0,1.468-.111,2.098-.332.629-.222,1.17-.557,1.625-1.006.455-.448.805-1.005,1.049-1.669l3.041.839c-.303.979-.815,1.842-1.537,2.587-.723.746-1.617,1.329-2.684,1.748-1.066.42-2.27.63-3.609.63-1.889,0-3.517-.42-4.886-1.259-1.37-.839-2.425-2.011-3.164-3.514-.74-1.503-1.11-3.257-1.11-5.261s.361-3.771,1.084-5.297,1.745-2.721,3.068-3.583c1.322-.862,2.869-1.294,4.641-1.294,1.037,0,2.059.172,3.067.516,1.008.344,1.923.897,2.744,1.661.821.763,1.478,1.769,1.967,3.015.489,1.247.733,2.773.733,4.58v1.311ZM453.672,148.461c-.414.059-.824.088-1.232.088-1.689,0-3.006-.446-3.949-1.338-.944-.892-1.416-2.135-1.416-3.731v-12.026h-2.938v-2.691h2.938v-4.649h3.146v4.649h4.02v2.691h-4.02v11.781c0,.874.177,1.513.533,1.914.354.402.945.604,1.773.604.198,0,.451-.023.76-.07.309-.046.592-.093.848-.14l.647,2.657c-.326.116-.696.203-1.11.262ZM478.17,148.303h-3.129l-2.535-8.845c-.256-.897-.506-1.812-.752-2.744-.244-.933-.482-1.888-.717-2.867-.118-.499-.243-1.015-.365-1.523-.12.505-.238,1.014-.359,1.515-.238.984-.48,1.948-.725,2.893-.246.943-.496,1.853-.752,2.727l-2.535,8.845h-3.129l-5.926-19.542h3.34l2.377,8.53c.326,1.165.676,2.484,1.049,3.959.28,1.108.557,2.326.831,3.655.261-1.263.526-2.444.794-3.542.361-1.479.711-2.837,1.049-4.072l2.342-8.53h3.357l2.307,8.53c.326,1.2.666,2.537,1.021,4.011.264,1.096.527,2.291.788,3.582.275-1.273.549-2.456.821-3.547.367-1.474.719-2.822,1.057-4.046l2.377-8.53h3.34l-5.926,19.542ZM503.2,143.933c-.746,1.516-1.789,2.692-3.129,3.531s-2.901,1.259-4.685,1.259c-1.771,0-3.324-.42-4.658-1.259s-2.374-2.016-3.12-3.531c-.746-1.515-1.118-3.274-1.118-5.278,0-2.039.372-3.819,1.118-5.34.746-1.521,1.786-2.701,3.12-3.54s2.887-1.259,4.658-1.259c1.783,0,3.345.42,4.685,1.259s2.383,2.019,3.129,3.54c.746,1.521,1.119,3.301,1.119,5.34,0,2.004-.373,3.764-1.119,5.278ZM518.81,131.698c-.094-.023-.326-.059-.699-.105-.373-.046-.77-.069-1.188-.069-.933,0-1.769.195-2.509.586-.74.39-1.319.926-1.739,1.607-.419.682-.629,1.466-.629,2.352v12.235h-3.146v-19.542h3.041v3.006h.21c.361-.99,1.005-1.785,1.932-2.386.927-.6,1.973-.9,3.138-.9.233,0,.51.007.83.018.32.012.574.023.761.035v3.164ZM535.293,148.303l-7.153-9.141-2.059,1.934v7.207h-3.146v-26.045h3.146v15.12h.385l8.354-8.617h3.898l-8.172,8.393,8.783,11.149h-4.037Z" class="logo-secondary"/>
    <path d="M498.638,132.353c-.851-.682-1.935-1.022-3.251-1.022-1.305,0-2.377.341-3.216,1.022s-1.463,1.576-1.871,2.684c-.407,1.106-.611,2.312-.611,3.618,0,1.282.204,2.473.611,3.574.408,1.102,1.032,1.99,1.871,2.666s1.911,1.014,3.216,1.014c1.316,0,2.4-.338,3.251-1.014s1.48-1.564,1.888-2.666c.408-1.102.612-2.292.612-3.574,0-1.294-.204-2.497-.612-3.609-.407-1.113-1.037-2.011-1.888-2.692Z" class="logo-secondary"/>
  </g>
</svg>