<?xml version="1.0" encoding="UTF-8"?>
<svg id="Layer_1" xmlns="http://www.w3.org/2000/svg" version="1.1" viewBox="0 0 785.862 178.349">
  <!-- Generator: Adobe Illustrator 30.1.0, SVG Export Plug-In . SVG Version: 2.1.1 Build 136)  -->
  <path d="M-128.517,57.196l-21.71,51.059c-.47,1.273-1.19,2.261-2.161,2.965-.972.704-2.027,1.055-3.166,1.055-1.81,0-3.15-.502-4.021-1.507-.871-1.005-1.307-2.244-1.307-3.719,0-.603.101-1.239.302-1.91l25.026-60.104c.536-1.339,1.357-2.377,2.463-3.116,1.105-.736,2.294-1.038,3.567-.904,1.207,0,2.328.352,3.367,1.055,1.038.704,1.792,1.693,2.262,2.965l24.726,58.898c.334.872.502,1.676.502,2.413,0,1.809-.587,3.25-1.759,4.322-1.173,1.072-2.463,1.608-3.869,1.608-1.206,0-2.297-.369-3.267-1.105-.973-.736-1.727-1.742-2.262-3.015l-21.609-50.355,2.915-.603ZM-147.111,95.993l5.528-11.559h27.138l1.909,11.559h-34.575Z" fill="#233876"/>
  <g>
    <g>
      <path d="M-1725.266,43.555c2.129,0,3.889.697,5.283,2.089,1.392,1.394,2.089,3.194,2.089,5.406v51.969c0,2.13-.697,3.912-2.089,5.344-1.394,1.434-3.154,2.15-5.283,2.15s-3.891-.716-5.283-2.15c-1.394-1.432-2.088-3.214-2.088-5.344v-6.021l2.703,1.106c0,1.065-.574,2.355-1.72,3.87-1.148,1.517-2.703,3.01-4.668,4.484-1.966,1.474-4.281,2.724-6.942,3.747-2.663,1.023-5.549,1.536-8.661,1.536-5.652,0-10.771-1.453-15.357-4.361-4.588-2.906-8.212-6.92-10.873-12.04-2.663-5.118-3.993-10.996-3.993-17.63,0-6.715,1.33-12.633,3.993-17.753,2.661-5.118,6.245-9.132,10.75-12.04,4.503-2.907,9.5-4.362,14.989-4.362,3.521,0,6.757.534,9.706,1.597,2.948,1.065,5.507,2.417,7.679,4.055,2.169,1.639,3.849,3.298,5.037,4.976,1.186,1.68,1.781,3.093,1.781,4.239l-4.423,1.597v-8.969c0-2.129.695-3.911,2.088-5.344,1.392-1.432,3.152-2.15,5.283-2.15ZM-1750.083,98.228c3.603,0,6.757-.9,9.46-2.703,2.703-1.801,4.811-4.258,6.327-7.372,1.515-3.112,2.273-6.592,2.273-10.443,0-3.932-.758-7.452-2.273-10.566-1.517-3.112-3.624-5.569-6.327-7.372-2.703-1.8-5.857-2.703-9.46-2.703-3.522,0-6.634.902-9.337,2.703-2.703,1.803-4.812,4.26-6.327,7.372-1.517,3.114-2.273,6.634-2.273,10.566,0,3.851.756,7.331,2.273,10.443,1.515,3.114,3.625,5.571,6.327,7.372,2.703,1.803,5.815,2.703,9.337,2.703Z" fill="#233876"/>
      <path d="M-1667.893,43.555c5.732,0,10.873,1.455,15.419,4.362,4.545,2.908,8.149,6.901,10.812,11.979,2.661,5.08,3.993,10.977,3.993,17.691s-1.332,12.635-3.993,17.753c-2.663,5.12-6.226,9.134-10.689,12.04-4.465,2.908-9.481,4.361-15.05,4.361-3.277,0-6.348-.534-9.214-1.597-2.868-1.063-5.386-2.415-7.556-4.054-2.171-1.638-3.851-3.296-5.037-4.976-1.188-1.678-1.781-3.091-1.781-4.239l3.809-1.597v32.311c0,2.129-.697,3.911-2.089,5.345-1.394,1.432-3.154,2.149-5.283,2.149s-3.891-.696-5.283-2.088c-1.394-1.394-2.088-3.194-2.088-5.406V52.279c0-2.129.695-3.91,2.088-5.344,1.392-1.432,3.152-2.15,5.283-2.15s3.889.718,5.283,2.15c1.392,1.434,2.089,3.215,2.089,5.344v6.02l-2.089-1.105c0-1.064.572-2.354,1.72-3.87,1.146-1.515,2.703-3.029,4.668-4.546,1.966-1.515,4.239-2.764,6.819-3.747s5.302-1.475,8.17-1.475ZM-1669.735,57.07c-3.605,0-6.757.902-9.46,2.703-2.703,1.803-4.813,4.239-6.328,7.31-1.516,3.072-2.272,6.573-2.272,10.504,0,3.851.756,7.353,2.272,10.504,1.515,3.154,3.625,5.632,6.328,7.433,2.703,1.803,5.854,2.703,9.46,2.703s6.736-.9,9.398-2.703c2.661-1.801,4.75-4.279,6.266-7.433,1.515-3.152,2.272-6.653,2.272-10.504,0-3.931-.758-7.433-2.272-10.504-1.517-3.071-3.605-5.507-6.266-7.31-2.663-1.8-5.795-2.703-9.398-2.703Z" fill="#233876"/>
      <path d="M-1590.738,43.555c5.732,0,10.873,1.455,15.419,4.362,4.545,2.908,8.149,6.901,10.812,11.979,2.661,5.08,3.993,10.977,3.993,17.691s-1.332,12.635-3.993,17.753c-2.663,5.12-6.226,9.134-10.689,12.04-4.465,2.908-9.481,4.361-15.05,4.361-3.277,0-6.348-.534-9.214-1.597-2.868-1.063-5.386-2.415-7.556-4.054-2.171-1.638-3.851-3.296-5.037-4.976-1.188-1.678-1.781-3.091-1.781-4.239l3.809-1.597v32.311c0,2.129-.697,3.911-2.089,5.345-1.394,1.432-3.154,2.149-5.283,2.149s-3.891-.696-5.283-2.088c-1.394-1.394-2.088-3.194-2.088-5.406V52.279c0-2.129.695-3.91,2.088-5.344,1.392-1.432,3.152-2.15,5.283-2.15s3.889.718,5.283,2.15c1.392,1.434,2.089,3.215,2.089,5.344v6.02l-2.089-1.105c0-1.064.572-2.354,1.72-3.87,1.146-1.515,2.703-3.029,4.668-4.546,1.966-1.515,4.239-2.764,6.819-3.747s5.302-1.475,8.17-1.475ZM-1592.581,57.07c-3.605,0-6.757.902-9.46,2.703-2.703,1.803-4.813,4.239-6.328,7.31-1.516,3.072-2.272,6.573-2.272,10.504,0,3.851.756,7.353,2.272,10.504,1.515,3.154,3.625,5.632,6.328,7.433,2.703,1.803,5.854,2.703,9.46,2.703s6.736-.9,9.398-2.703c2.661-1.801,4.75-4.279,6.266-7.433,1.515-3.152,2.272-6.653,2.272-10.504,0-3.931-.758-7.433-2.272-10.504-1.517-3.071-3.605-5.507-6.266-7.31-2.663-1.8-5.795-2.703-9.398-2.703Z" fill="#233876"/>
      <path d="M-1531.645,103.019c0,2.13-.718,3.912-2.149,5.344-1.435,1.434-3.216,2.15-5.345,2.15-2.048,0-3.768-.716-5.16-2.15-1.394-1.432-2.088-3.214-2.088-5.344V27.092c0-2.129.716-3.91,2.15-5.344s3.214-2.15,5.345-2.15,3.87.718,5.222,2.15c1.351,1.434,2.026,3.215,2.026,5.344v75.927Z" fill="#233876"/>
      <path d="M-1508.058,36.799c-2.785,0-4.751-.449-5.896-1.352-1.148-.9-1.721-2.498-1.721-4.792v-2.334c0-2.375.634-3.993,1.904-4.853,1.27-.86,3.214-1.29,5.836-1.29,2.866,0,4.872.451,6.021,1.352,1.146.902,1.72,2.5,1.72,4.792v2.334c0,2.376-.614,3.993-1.843,4.853-1.229.86-3.236,1.29-6.021,1.29ZM-1500.563,103.019c0,2.13-.697,3.912-2.089,5.344-1.394,1.434-3.154,2.15-5.283,2.15s-3.891-.716-5.282-2.15c-1.395-1.432-2.089-3.214-2.089-5.344v-50.741c0-2.129.694-3.91,2.089-5.344,1.392-1.432,3.151-2.15,5.282-2.15s3.89.718,5.283,2.15c1.392,1.434,2.089,3.215,2.089,5.344v50.741Z" fill="#233876"/>
      <path d="M-1456.211,43.555c4.668,0,8.741.492,12.224,1.475,3.48.983,6.184,2.355,8.109,4.116,1.923,1.762,2.887,3.87,2.887,6.327,0,1.639-.491,3.175-1.475,4.607-.982,1.434-2.416,2.15-4.3,2.15-1.311,0-2.396-.185-3.256-.553-.859-.368-1.618-.839-2.272-1.413-.656-.572-1.435-1.106-2.335-1.597-.819-.492-2.069-.879-3.747-1.167-1.68-.286-2.929-.43-3.747-.43-4.177,0-7.721.902-10.627,2.703-2.908,1.803-5.141,4.239-6.696,7.31-1.557,3.072-2.334,6.615-2.334,10.627,0,3.932.799,7.433,2.396,10.504,1.598,3.071,3.809,5.509,6.635,7.31,2.826,1.803,6.081,2.703,9.768,2.703,2.046,0,3.809-.123,5.282-.369,1.475-.246,2.703-.614,3.687-1.106,1.146-.654,2.169-1.352,3.071-2.088.9-.737,2.251-1.106,4.054-1.106,2.129,0,3.767.676,4.915,2.027,1.146,1.352,1.72,3.01,1.72,4.976,0,2.048-1.148,3.913-3.44,5.59-2.294,1.68-5.304,3.031-9.03,4.054-3.728,1.023-7.761,1.536-12.102,1.536-6.471,0-12.082-1.494-16.831-4.484-4.751-2.989-8.416-7.064-10.996-12.224-2.58-5.16-3.87-10.935-3.87-17.323,0-6.715,1.371-12.633,4.116-17.753,2.743-5.118,6.552-9.132,11.426-12.04,4.872-2.907,10.462-4.362,16.771-4.362Z" fill="#233876"/>
      <path d="M-1367.755,43.555c2.129,0,3.89.697,5.283,2.089,1.392,1.394,2.088,3.194,2.088,5.406v51.969c0,2.13-.696,3.912-2.088,5.344-1.394,1.434-3.154,2.15-5.283,2.15s-3.892-.716-5.283-2.15c-1.394-1.432-2.088-3.214-2.088-5.344v-6.021l2.702,1.106c0,1.065-.573,2.355-1.72,3.87-1.148,1.517-2.703,3.01-4.669,4.484-1.966,1.474-4.28,2.724-6.941,3.747-2.662,1.023-5.55,1.536-8.661,1.536-5.651,0-10.771-1.453-15.357-4.361-4.588-2.906-8.212-6.92-10.873-12.04-2.662-5.118-3.993-10.996-3.993-17.63,0-6.715,1.331-12.633,3.993-17.753,2.661-5.118,6.245-9.132,10.75-12.04,4.504-2.907,9.501-4.362,14.989-4.362,3.521,0,6.757.534,9.705,1.597,2.949,1.065,5.508,2.417,7.679,4.055,2.17,1.639,3.85,3.298,5.037,4.976,1.187,1.68,1.782,3.093,1.782,4.239l-4.423,1.597v-8.969c0-2.129.694-3.911,2.088-5.344,1.392-1.432,3.152-2.15,5.283-2.15ZM-1392.573,98.228c3.604,0,6.757-.9,9.46-2.703,2.703-1.801,4.811-4.258,6.327-7.372,1.515-3.112,2.273-6.592,2.273-10.443,0-3.932-.759-7.452-2.273-10.566-1.517-3.112-3.624-5.569-6.327-7.372-2.703-1.8-5.856-2.703-9.46-2.703-3.522,0-6.635.902-9.337,2.703-2.703,1.803-4.813,4.26-6.327,7.372-1.517,3.114-2.273,6.634-2.273,10.566,0,3.851.757,7.331,2.273,10.443,1.514,3.114,3.624,5.571,6.327,7.372,2.702,1.803,5.814,2.703,9.337,2.703Z" fill="#233876"/>
      <path d="M-1309.276,43.555c6.061,0,10.668,1.271,13.822,3.809,3.151,2.54,5.323,5.918,6.511,10.136,1.187,4.219,1.782,8.907,1.782,14.067v31.452c0,2.13-.697,3.912-2.089,5.344-1.394,1.434-3.154,2.15-5.283,2.15s-3.891-.716-5.283-2.15c-1.394-1.432-2.088-3.214-2.088-5.344v-31.452c0-2.703-.35-5.139-1.045-7.31-.696-2.169-1.946-3.91-3.747-5.221-1.803-1.31-4.383-1.966-7.74-1.966-3.276,0-6.041.656-8.293,1.966-2.253,1.311-3.974,3.052-5.159,5.221-1.188,2.171-1.782,4.607-1.782,7.31v31.452c0,2.13-.696,3.912-2.088,5.344-1.395,1.434-3.154,2.15-5.283,2.15s-3.892-.716-5.283-2.15c-1.394-1.432-2.089-3.214-2.089-5.344v-50.741c0-2.129.695-3.91,2.089-5.344,1.392-1.432,3.152-2.15,5.283-2.15s3.889.718,5.283,2.15c1.392,1.434,2.088,3.215,2.088,5.344v5.283l-1.843-.368c.737-1.392,1.801-2.887,3.194-4.484,1.392-1.597,3.029-3.091,4.914-4.484,1.884-1.392,4.013-2.519,6.389-3.379,2.375-.86,4.955-1.29,7.74-1.29Z" fill="#233876"/>
      <path d="M-1270.454,46.013h29.118c1.965,0,3.603.656,4.914,1.965,1.309,1.312,1.966,2.949,1.966,4.915,0,1.885-.657,3.461-1.966,4.73-1.312,1.271-2.949,1.904-4.914,1.904h-29.118c-1.966,0-3.604-.654-4.914-1.966-1.312-1.309-1.966-2.948-1.966-4.914,0-1.883.654-3.459,1.966-4.73,1.31-1.269,2.948-1.904,4.914-1.904ZM-1257.307,30.655c2.129,0,3.87.718,5.221,2.15,1.352,1.434,2.027,3.215,2.027,5.344v54.672c0,1.148.225,2.088.676,2.826.449.737,1.063,1.271,1.843,1.597.777.328,1.616.491,2.519.491.983,0,1.884-.184,2.703-.553.818-.369,1.761-.553,2.826-.553,1.146,0,2.19.534,3.133,1.597.94,1.065,1.413,2.54,1.413,4.423,0,2.294-1.25,4.177-3.748,5.651-2.499,1.474-5.181,2.211-8.047,2.211-1.72,0-3.624-.142-5.713-.43-2.089-.286-4.055-.983-5.897-2.088-1.843-1.106-3.378-2.805-4.606-5.099-1.229-2.292-1.844-5.446-1.844-9.46v-55.287c0-2.129.717-3.91,2.15-5.344,1.432-1.432,3.214-2.15,5.345-2.15Z" fill="#233876"/>
    </g>
    <g>
      <path d="M-1357.8,136.942c-.078-.89-.263-1.704-.559-2.438-.402-.997-1-1.777-1.793-2.343-.792-.564-1.776-.848-2.953-.848s-2.186.288-3.024.865-1.479,1.328-1.923,2.255c-.377.787-.583,1.625-.639,2.509h10.892Z" fill="#0f9c89"/>
      <path d="M-1257.086,114.472h-137.506c-12.227,0-22.139,9.912-22.139,22.139s9.912,22.139,22.139,22.139h137.506c12.227,0,22.139-9.912,22.139-22.139s-9.912-22.139-22.139-22.139ZM-1376.477,148.303h-3.146v-12.148c0-1.503-.394-2.68-1.18-3.53s-1.862-1.276-3.226-1.276c-.932,0-1.771.204-2.517.611-.746.408-1.335,1.003-1.766,1.783-.431.781-.646,1.73-.646,2.85v11.711h-3.146v-19.542h3.024l.013,3.632c.55-1.229,1.25-2.149,2.11-2.74,1.102-.758,2.393-1.137,3.872-1.137,1.317,0,2.47.271,3.461.813.99.541,1.763,1.357,2.315,2.446.554,1.09.831,2.462.831,4.117v12.41ZM-1354.594,139.598h-14.104c.045,1.26.282,2.353.733,3.26.5,1.009,1.203,1.771,2.105,2.29.903.519,1.949.778,3.139.778.769,0,1.468-.111,2.098-.332.629-.222,1.17-.557,1.625-1.006.455-.448.805-1.005,1.049-1.669l3.041.839c-.303.979-.815,1.842-1.537,2.587-.723.746-1.617,1.329-2.684,1.748-1.066.42-2.27.63-3.609.63-1.889,0-3.517-.42-4.886-1.259-1.37-.839-2.425-2.011-3.164-3.514-.74-1.503-1.11-3.257-1.11-5.261s.361-3.771,1.084-5.297,1.745-2.721,3.068-3.583c1.322-.862,2.869-1.294,4.641-1.294,1.037,0,2.059.172,3.067.516,1.008.344,1.923.897,2.744,1.661.821.763,1.478,1.769,1.967,3.015.489,1.247.733,2.773.733,4.58v1.311ZM-1342.961,148.461c-.414.059-.824.088-1.232.088-1.689,0-3.006-.446-3.949-1.338-.944-.892-1.416-2.135-1.416-3.731v-12.026h-2.938v-2.691h2.938v-4.649h3.146v4.649h4.02v2.691h-4.02v11.781c0,.874.177,1.513.533,1.914.354.402.945.604,1.773.604.198,0,.451-.023.76-.07.309-.046.592-.093.848-.14l.647,2.657c-.326.116-.696.203-1.11.262ZM-1318.463,148.303h-3.129l-2.535-8.845c-.256-.897-.506-1.812-.752-2.744-.244-.933-.482-1.888-.717-2.867-.118-.499-.243-1.015-.365-1.523-.12.505-.238,1.014-.359,1.515-.238.984-.48,1.948-.725,2.893-.246.943-.496,1.853-.752,2.727l-2.535,8.845h-3.129l-5.926-19.542h3.34l2.377,8.53c.326,1.165.676,2.484,1.049,3.959.28,1.108.557,2.326.831,3.655.261-1.263.526-2.444.794-3.542.361-1.479.711-2.837,1.049-4.072l2.342-8.53h3.357l2.307,8.53c.326,1.2.666,2.537,1.021,4.011.264,1.096.527,2.291.788,3.582.275-1.273.549-2.456.821-3.547.367-1.474.719-2.822,1.057-4.046l2.377-8.53h3.34l-5.926,19.542ZM-1293.433,143.933c-.746,1.516-1.789,2.692-3.129,3.531s-2.901,1.259-4.685,1.259c-1.771,0-3.324-.42-4.658-1.259s-2.374-2.016-3.12-3.531c-.746-1.515-1.118-3.274-1.118-5.278,0-2.039.372-3.819,1.118-5.34.746-1.521,1.786-2.701,3.12-3.54s2.887-1.259,4.658-1.259c1.783,0,3.345.42,4.685,1.259s2.383,2.019,3.129,3.54c.746,1.521,1.119,3.301,1.119,5.34,0,2.004-.373,3.764-1.119,5.278ZM-1277.823,131.698c-.094-.023-.326-.059-.699-.105-.373-.046-.77-.069-1.188-.069-.933,0-1.769.195-2.509.586-.74.39-1.319.926-1.739,1.607-.419.682-.629,1.466-.629,2.352v12.235h-3.146v-19.542h3.041v3.006h.21c.361-.99,1.005-1.785,1.932-2.386.927-.6,1.973-.9,3.138-.9.233,0,.51.007.83.018.32.012.574.023.761.035v3.164ZM-1261.34,148.303l-7.153-9.141-2.059,1.934v7.207h-3.146v-26.045h3.146v15.12h.385l8.354-8.617h3.898l-8.172,8.393,8.783,11.149h-4.037Z" fill="#0f9c89"/>
      <path d="M-1297.995,132.353c-.851-.682-1.935-1.022-3.251-1.022-1.305,0-2.377.341-3.216,1.022s-1.463,1.576-1.871,2.684c-.407,1.106-.611,2.312-.611,3.618,0,1.282.204,2.473.611,3.574.408,1.102,1.032,1.99,1.871,2.666s1.911,1.014,3.216,1.014c1.316,0,2.4-.338,3.251-1.014s1.48-1.564,1.888-2.666c.408-1.102.612-2.292.612-3.574,0-1.294-.204-2.497-.612-3.609-.407-1.113-1.037-2.011-1.888-2.692Z" fill="#0f9c89"/>
    </g>
  </g>
  <g>
    <path d="M627.75,135.53c-.078-.89-.263-1.704-.559-2.438-.402-.997-1-1.777-1.793-2.343-.792-.564-1.776-.848-2.953-.848s-2.186.288-3.024.865-1.479,1.328-1.923,2.255c-.377.787-.583,1.625-.639,2.509h10.892Z" fill="#0f9c89"/>
    <path d="M728.464,113.06h-137.506c-12.227,0-22.139,9.912-22.139,22.139s9.912,22.139,22.139,22.139h137.506c12.227,0,22.139-9.912,22.139-22.139s-9.912-22.139-22.139-22.139ZM609.073,146.891h-3.146v-12.148c0-1.503-.394-2.68-1.18-3.53s-1.862-1.276-3.226-1.276c-.932,0-1.771.204-2.517.611-.746.408-1.335,1.003-1.766,1.783-.431.781-.646,1.73-.646,2.85v11.711h-3.146v-19.542h3.024l.013,3.632c.55-1.229,1.25-2.149,2.11-2.74,1.102-.758,2.393-1.137,3.872-1.137,1.317,0,2.47.271,3.461.813.99.541,1.763,1.357,2.315,2.446.554,1.09.831,2.462.831,4.117v12.41ZM630.956,138.186h-14.104c.045,1.26.282,2.353.733,3.26.5,1.009,1.203,1.771,2.105,2.29.903.519,1.949.778,3.139.778.769,0,1.468-.111,2.098-.332.629-.222,1.17-.557,1.625-1.006.455-.448.805-1.005,1.049-1.669l3.041.839c-.303.979-.815,1.842-1.537,2.587-.723.746-1.617,1.329-2.684,1.748-1.066.42-2.27.63-3.609.63-1.889,0-3.517-.42-4.886-1.259-1.37-.839-2.425-2.011-3.164-3.514-.74-1.503-1.11-3.257-1.11-5.261s.361-3.771,1.084-5.297,1.745-2.721,3.068-3.583c1.322-.862,2.869-1.294,4.641-1.294,1.037,0,2.059.172,3.067.516,1.008.344,1.923.897,2.744,1.661.821.763,1.478,1.769,1.967,3.015.489,1.247.733,2.773.733,4.58v1.311ZM642.589,147.048c-.414.059-.824.088-1.232.088-1.689,0-3.006-.446-3.949-1.338-.944-.892-1.416-2.135-1.416-3.731v-12.026h-2.938v-2.691h2.938v-4.649h3.146v4.649h4.02v2.691h-4.02v11.781c0,.874.177,1.513.533,1.914.354.402.945.604,1.773.604.198,0,.451-.023.76-.07.309-.046.592-.093.848-.14l.647,2.657c-.326.116-.696.203-1.11.262ZM667.087,146.891h-3.129l-2.535-8.845c-.256-.897-.506-1.812-.752-2.744-.244-.933-.482-1.888-.717-2.867-.118-.499-.243-1.015-.365-1.523-.12.505-.238,1.014-.359,1.515-.238.984-.48,1.948-.725,2.893-.246.943-.496,1.853-.752,2.727l-2.535,8.845h-3.129l-5.926-19.542h3.34l2.377,8.53c.326,1.165.676,2.484,1.049,3.959.28,1.108.557,2.326.831,3.655.261-1.263.526-2.444.794-3.542.361-1.479.711-2.837,1.049-4.072l2.342-8.53h3.357l2.307,8.53c.326,1.2.666,2.537,1.021,4.011.264,1.096.527,2.291.788,3.582.275-1.273.549-2.456.821-3.547.367-1.474.719-2.822,1.057-4.046l2.377-8.53h3.34l-5.926,19.542ZM692.118,142.521c-.746,1.516-1.789,2.692-3.129,3.531s-2.901,1.259-4.685,1.259c-1.771,0-3.324-.42-4.658-1.259s-2.374-2.016-3.12-3.531c-.746-1.515-1.118-3.274-1.118-5.278,0-2.039.372-3.819,1.118-5.34.746-1.521,1.786-2.701,3.12-3.54s2.887-1.259,4.658-1.259c1.783,0,3.345.42,4.685,1.259s2.383,2.019,3.129,3.54c.746,1.521,1.119,3.301,1.119,5.34,0,2.004-.373,3.764-1.119,5.278ZM707.727,130.286c-.094-.023-.326-.059-.699-.105-.373-.046-.77-.069-1.188-.069-.933,0-1.769.195-2.509.586-.74.39-1.319.926-1.739,1.607-.419.682-.629,1.466-.629,2.352v12.235h-3.146v-19.542h3.041v3.006h.21c.361-.99,1.005-1.785,1.932-2.386.927-.6,1.973-.9,3.138-.9.233,0,.51.007.83.018.32.012.574.023.761.035v3.164ZM724.21,146.891l-7.153-9.141-2.059,1.934v7.207h-3.146v-26.045h3.146v15.12h.385l8.354-8.617h3.898l-8.172,8.393,8.783,11.149h-4.037Z" fill="#0f9c89"/>
    <path d="M687.555,130.941c-.851-.682-1.935-1.022-3.251-1.022-1.305,0-2.377.341-3.216,1.022s-1.463,1.576-1.871,2.684c-.407,1.106-.611,2.312-.611,3.618,0,1.282.204,2.473.611,3.574.408,1.102,1.032,1.99,1.871,2.666s1.911,1.014,3.216,1.014c1.316,0,2.4-.338,3.251-1.014s1.48-1.564,1.888-2.666c.408-1.102.612-2.292.612-3.574,0-1.294-.204-2.497-.612-3.609-.407-1.113-1.037-2.011-1.888-2.692Z" fill="#0f9c89"/>
  </g>
  <g>
    <path d="M-761.14,136.942c-.078-.89-.263-1.704-.559-2.438-.402-.997-1-1.777-1.793-2.343-.792-.564-1.776-.848-2.953-.848s-2.186.288-3.024.865-1.479,1.328-1.923,2.255c-.377.787-.583,1.625-.639,2.509h10.892Z" fill="#0f9c89"/>
    <path d="M-660.425,114.472h-137.506c-12.227,0-22.139,9.912-22.139,22.139s9.912,22.139,22.139,22.139h137.506c12.227,0,22.139-9.912,22.139-22.139s-9.912-22.139-22.139-22.139ZM-779.817,148.303h-3.146v-12.148c0-1.503-.394-2.68-1.18-3.53s-1.862-1.276-3.226-1.276c-.932,0-1.771.204-2.517.611-.746.408-1.335,1.003-1.766,1.783-.431.781-.646,1.73-.646,2.85v11.711h-3.146v-19.542h3.024l.013,3.632c.55-1.229,1.25-2.149,2.11-2.74,1.102-.758,2.393-1.137,3.872-1.137,1.317,0,2.47.271,3.461.813.99.541,1.763,1.357,2.315,2.446.554,1.09.831,2.462.831,4.117v12.41ZM-757.933,139.598h-14.104c.045,1.26.282,2.353.733,3.26.5,1.009,1.203,1.771,2.105,2.29.903.519,1.949.778,3.139.778.769,0,1.468-.111,2.098-.332.629-.222,1.17-.557,1.625-1.006.455-.448.805-1.005,1.049-1.669l3.041.839c-.303.979-.815,1.842-1.537,2.587-.723.746-1.617,1.329-2.684,1.748-1.066.42-2.27.63-3.609.63-1.889,0-3.517-.42-4.886-1.259-1.37-.839-2.425-2.011-3.164-3.514-.74-1.503-1.11-3.257-1.11-5.261s.361-3.771,1.084-5.297,1.745-2.721,3.068-3.583c1.322-.862,2.869-1.294,4.641-1.294,1.037,0,2.059.172,3.067.516,1.008.344,1.923.897,2.744,1.661.821.763,1.478,1.769,1.967,3.015.489,1.247.733,2.773.733,4.58v1.311ZM-746.3,148.461c-.414.059-.824.088-1.232.088-1.689,0-3.006-.446-3.949-1.338-.944-.892-1.416-2.135-1.416-3.731v-12.026h-2.938v-2.691h2.938v-4.649h3.146v4.649h4.02v2.691h-4.02v11.781c0,.874.177,1.513.533,1.914.354.402.945.604,1.773.604.198,0,.451-.023.76-.07.309-.046.592-.093.848-.14l.647,2.657c-.326.116-.696.203-1.11.262ZM-721.802,148.303h-3.129l-2.535-8.845c-.256-.897-.506-1.812-.752-2.744-.244-.933-.482-1.888-.717-2.867-.118-.499-.243-1.015-.365-1.523-.12.505-.238,1.014-.359,1.515-.238.984-.48,1.948-.725,2.893-.246.943-.496,1.853-.752,2.727l-2.535,8.845h-3.129l-5.926-19.542h3.34l2.377,8.53c.326,1.165.676,2.484,1.049,3.959.28,1.108.557,2.326.831,3.655.261-1.263.526-2.444.794-3.542.361-1.479.711-2.837,1.049-4.072l2.342-8.53h3.357l2.307,8.53c.326,1.2.666,2.537,1.021,4.011.264,1.096.527,2.291.788,3.582.275-1.273.549-2.456.821-3.547.367-1.474.719-2.822,1.057-4.046l2.377-8.53h3.34l-5.926,19.542ZM-696.772,143.933c-.746,1.516-1.789,2.692-3.129,3.531s-2.901,1.259-4.685,1.259c-1.771,0-3.324-.42-4.658-1.259s-2.374-2.016-3.12-3.531c-.746-1.515-1.118-3.274-1.118-5.278,0-2.039.372-3.819,1.118-5.34.746-1.521,1.786-2.701,3.12-3.54s2.887-1.259,4.658-1.259c1.783,0,3.345.42,4.685,1.259s2.383,2.019,3.129,3.54c.746,1.521,1.119,3.301,1.119,5.34,0,2.004-.373,3.764-1.119,5.278ZM-681.163,131.698c-.094-.023-.326-.059-.699-.105-.373-.046-.77-.069-1.188-.069-.933,0-1.769.195-2.509.586-.74.39-1.319.926-1.739,1.607-.419.682-.629,1.466-.629,2.352v12.235h-3.146v-19.542h3.041v3.006h.21c.361-.99,1.005-1.785,1.932-2.386.927-.6,1.973-.9,3.138-.9.233,0,.51.007.83.018.32.012.574.023.761.035v3.164ZM-664.679,148.303l-7.153-9.141-2.059,1.934v7.207h-3.146v-26.045h3.146v15.12h.385l8.354-8.617h3.898l-8.172,8.393,8.783,11.149h-4.037Z" fill="#0f9c89"/>
    <path d="M-701.335,132.353c-.851-.682-1.935-1.022-3.251-1.022-1.305,0-2.377.341-3.216,1.022s-1.463,1.576-1.871,2.684c-.407,1.106-.611,2.312-.611,3.618,0,1.282.204,2.473.611,3.574.408,1.102,1.032,1.99,1.871,2.666s1.911,1.014,3.216,1.014c1.316,0,2.4-.338,3.251-1.014s1.48-1.564,1.888-2.666c.408-1.102.612-2.292.612-3.574,0-1.294-.204-2.497-.612-3.609-.407-1.113-1.037-2.011-1.888-2.692Z" fill="#0f9c89"/>
  </g>
  <g>
    <path d="M-945.447,100.064c-.84-1.174-1.218-2.685-1.133-4.532.083-1.845,1.174-3.44,3.273-4.784,1.341-.838,2.77-1.196,4.28-1.07s2.979.903,4.406,2.329c2.434,2.435,4.992,4.324,7.68,5.665,2.685,1.344,6.043,2.014,10.071,2.014,1.259-.083,2.644-.271,4.154-.566,1.511-.293,2.833-.964,3.966-2.014,1.133-1.048,1.7-2.664,1.7-4.847,0-1.845-.63-3.314-1.889-4.406-1.259-1.09-2.917-2.014-4.973-2.77-2.058-.755-4.344-1.468-6.861-2.14-2.603-.755-5.269-1.593-7.994-2.518-2.729-.922-5.225-2.119-7.491-3.588-2.266-1.468-4.113-3.419-5.539-5.854-1.429-2.434-2.141-5.496-2.141-9.19,0-4.196,1.175-7.762,3.525-10.701,2.349-2.937,5.392-5.203,9.127-6.798,3.733-1.593,7.658-2.392,11.771-2.392,2.601,0,5.329.315,8.183.944,2.853.629,5.581,1.637,8.184,3.021,2.601,1.385,4.784,3.21,6.547,5.477.922,1.259,1.467,2.77,1.637,4.532.167,1.762-.63,3.358-2.393,4.784-1.259,1.007-2.729,1.448-4.406,1.322-1.68-.126-3.064-.692-4.154-1.7-1.429-1.845-3.336-3.314-5.729-4.406-2.392-1.09-5.142-1.637-8.246-1.637-1.259,0-2.624.147-4.092.44-1.469.295-2.75.925-3.84,1.889-1.092.966-1.636,2.498-1.636,4.595,0,1.932.629,3.462,1.888,4.595,1.259,1.133,2.959,2.058,5.099,2.77,2.141.714,4.427,1.406,6.861,2.077,2.519.673,5.077,1.47,7.68,2.392,2.601.924,4.993,2.14,7.176,3.651,2.182,1.511,3.944,3.462,5.288,5.854,1.342,2.392,2.015,5.435,2.015,9.127,0,4.28-1.26,7.932-3.777,10.953s-5.665,5.309-9.442,6.861c-3.776,1.552-7.638,2.329-11.582,2.329-4.953,0-9.904-.861-14.855-2.581-4.953-1.719-9.064-4.763-12.338-9.127Z" fill="#233876"/>
    <path d="M-845.991,41.901c5.874,0,11.142,1.491,15.8,4.469,4.658,2.98,8.351,7.072,11.079,12.275,2.727,5.205,4.092,11.248,4.092,18.129s-1.365,12.947-4.092,18.192c-2.729,5.246-6.379,9.359-10.953,12.337-4.575,2.98-9.715,4.469-15.422,4.469-3.357,0-6.505-.547-9.442-1.636-2.938-1.09-5.52-2.475-7.742-4.155-2.225-1.678-3.946-3.377-5.162-5.099-1.217-1.719-1.825-3.167-1.825-4.343l3.903-1.637v33.11c0,2.182-.715,4.008-2.141,5.477-1.428,1.466-3.232,2.203-5.413,2.203s-3.987-.715-5.414-2.14c-1.428-1.428-2.14-3.273-2.14-5.539V50.839c0-2.181.712-4.007,2.14-5.476,1.427-1.468,3.23-2.203,5.414-2.203s3.985.735,5.413,2.203c1.426,1.469,2.141,3.295,2.141,5.476v6.169l-2.141-1.133c0-1.09.586-2.412,1.763-3.966,1.174-1.552,2.77-3.104,4.784-4.658,2.014-1.552,4.343-2.833,6.986-3.84,2.645-1.007,5.434-1.511,8.372-1.511ZM-847.879,55.749c-3.694,0-6.925.924-9.694,2.77-2.77,1.847-4.932,4.343-6.483,7.491-1.554,3.147-2.329,6.735-2.329,10.764,0,3.946.775,7.534,2.329,10.764,1.552,3.232,3.714,5.771,6.483,7.616,2.77,1.847,6,2.77,9.694,2.77s6.902-.923,9.631-2.77c2.727-1.845,4.866-4.384,6.42-7.616,1.553-3.23,2.329-6.818,2.329-10.764,0-4.029-.776-7.617-2.329-10.764-1.554-3.147-3.693-5.644-6.42-7.491-2.729-1.845-5.939-2.77-9.631-2.77Z" fill="#233876"/>
    <path d="M-785.436,102.834c0,2.184-.736,4.009-2.203,5.477-1.47,1.469-3.295,2.203-5.477,2.203-2.1,0-3.861-.734-5.288-2.203-1.428-1.467-2.14-3.293-2.14-5.477V25.031c0-2.182.733-4.007,2.203-5.477,1.467-1.467,3.293-2.203,5.477-2.203s3.965.736,5.351,2.203c1.385,1.469,2.077,3.295,2.077,5.477v77.803Z" fill="#233876"/>
    <path d="M-761.267,34.977c-2.854,0-4.868-.46-6.043-1.385-1.176-.922-1.763-2.559-1.763-4.91v-2.392c0-2.433.649-4.091,1.952-4.973,1.3-.881,3.293-1.322,5.979-1.322,2.937,0,4.992.462,6.169,1.385,1.175.924,1.763,2.561,1.763,4.91v2.392c0,2.435-.63,4.091-1.889,4.973s-3.316,1.322-6.169,1.322ZM-753.587,102.834c0,2.184-.714,4.009-2.14,5.477-1.429,1.469-3.232,2.203-5.414,2.203s-3.987-.734-5.413-2.203c-1.429-1.467-2.141-3.293-2.141-5.477v-51.995c0-2.181.712-4.007,2.141-5.476,1.426-1.468,3.229-2.203,5.413-2.203s3.985.735,5.414,2.203c1.426,1.469,2.14,3.295,2.14,5.476v51.995Z" fill="#233876"/>
    <path d="M-737.348,44.419h29.837c2.015,0,3.692.673,5.036,2.014,1.342,1.344,2.015,3.021,2.015,5.036,0,1.932-.673,3.546-2.015,4.847-1.344,1.302-3.021,1.952-5.036,1.952h-29.837c-2.015,0-3.694-.671-5.036-2.015-1.343-1.341-2.014-3.021-2.014-5.036,0-1.93.671-3.545,2.014-4.847,1.342-1.3,3.021-1.951,5.036-1.951ZM-723.877,28.682c2.182,0,3.966.736,5.351,2.203,1.385,1.469,2.077,3.295,2.077,5.477v56.023c0,1.176.23,2.14.692,2.896.461.755,1.09,1.302,1.889,1.637.797.336,1.656.503,2.581.503,1.007,0,1.93-.188,2.77-.566.838-.377,1.804-.566,2.896-.566,1.174,0,2.244.547,3.21,1.637.964,1.092,1.448,2.603,1.448,4.532,0,2.351-1.28,4.28-3.84,5.791-2.562,1.511-5.31,2.266-8.246,2.266-1.763,0-3.714-.146-5.854-.44-2.14-.293-4.154-1.007-6.043-2.141-1.888-1.133-3.462-2.874-4.721-5.225-1.259-2.349-1.889-5.581-1.889-9.694v-56.652c0-2.182.734-4.007,2.203-5.477,1.468-1.467,3.293-2.203,5.477-2.203Z" fill="#233876"/>
    <path d="M-687.998,100.064c-.84-1.174-1.218-2.685-1.133-4.532.083-1.845,1.174-3.44,3.273-4.784,1.341-.838,2.77-1.196,4.28-1.07s2.979.903,4.406,2.329c2.434,2.435,4.992,4.324,7.68,5.665,2.685,1.344,6.043,2.014,10.071,2.014,1.259-.083,2.644-.271,4.154-.566,1.511-.293,2.833-.964,3.966-2.014,1.133-1.048,1.7-2.664,1.7-4.847,0-1.845-.63-3.314-1.889-4.406-1.259-1.09-2.917-2.014-4.973-2.77-2.058-.755-4.344-1.468-6.861-2.14-2.603-.755-5.269-1.593-7.994-2.518-2.729-.922-5.225-2.119-7.491-3.588-2.266-1.468-4.113-3.419-5.539-5.854-1.429-2.434-2.141-5.496-2.141-9.19,0-4.196,1.175-7.762,3.525-10.701,2.349-2.937,5.392-5.203,9.127-6.798,3.733-1.593,7.658-2.392,11.771-2.392,2.601,0,5.329.315,8.183.944,2.853.629,5.581,1.637,8.184,3.021,2.601,1.385,4.784,3.21,6.547,5.477.922,1.259,1.467,2.77,1.637,4.532.167,1.762-.63,3.358-2.393,4.784-1.259,1.007-2.729,1.448-4.406,1.322-1.68-.126-3.064-.692-4.154-1.7-1.429-1.845-3.336-3.314-5.729-4.406-2.392-1.09-5.142-1.637-8.246-1.637-1.259,0-2.624.147-4.092.44-1.469.295-2.75.925-3.84,1.889-1.092.966-1.636,2.498-1.636,4.595,0,1.932.629,3.462,1.888,4.595,1.259,1.133,2.959,2.058,5.099,2.77,2.141.714,4.427,1.406,6.861,2.077,2.519.673,5.077,1.47,7.68,2.392,2.601.924,4.993,2.14,7.176,3.651,2.182,1.511,3.944,3.462,5.288,5.854,1.342,2.392,2.015,5.435,2.015,9.127,0,4.28-1.26,7.932-3.777,10.953s-5.665,5.309-9.442,6.861c-3.776,1.552-7.638,2.329-11.582,2.329-4.953,0-9.904-.861-14.855-2.581-4.953-1.719-9.064-4.763-12.338-9.127Z" fill="#233876"/>
  </g>
  <path d="M-348.787,100.064c-.84-1.174-1.218-2.685-1.133-4.532.083-1.845,1.174-3.44,3.273-4.784,1.341-.838,2.77-1.196,4.28-1.07s2.979.903,4.406,2.329c2.434,2.435,4.992,4.324,7.68,5.665,2.685,1.344,6.043,2.014,10.071,2.014,1.259-.083,2.644-.271,4.154-.566,1.511-.293,2.833-.964,3.966-2.014,1.133-1.048,1.7-2.664,1.7-4.847,0-1.845-.63-3.314-1.889-4.406-1.259-1.09-2.917-2.014-4.973-2.77-2.058-.755-4.344-1.468-6.861-2.14-2.603-.755-5.269-1.593-7.994-2.518-2.729-.922-5.225-2.119-7.491-3.588-2.266-1.468-4.113-3.419-5.539-5.854-1.429-2.434-2.141-5.496-2.141-9.19,0-4.196,1.175-7.762,3.525-10.701,2.349-2.937,5.392-5.203,9.127-6.798,3.733-1.593,7.658-2.392,11.771-2.392,2.601,0,5.329.315,8.183.944,2.853.629,5.581,1.637,8.184,3.021,2.601,1.385,4.784,3.21,6.547,5.477.922,1.259,1.467,2.77,1.637,4.532.167,1.762-.63,3.358-2.393,4.784-1.259,1.007-2.729,1.448-4.406,1.322-1.68-.126-3.064-.692-4.154-1.7-1.429-1.845-3.336-3.314-5.729-4.406-2.392-1.09-5.142-1.637-8.246-1.637-1.259,0-2.624.147-4.092.44-1.469.295-2.75.925-3.84,1.889-1.092.966-1.636,2.498-1.636,4.595,0,1.932.629,3.462,1.888,4.595,1.259,1.133,2.959,2.058,5.099,2.77,2.141.714,4.427,1.406,6.861,2.077,2.519.673,5.077,1.47,7.68,2.392,2.601.924,4.993,2.14,7.176,3.651,2.182,1.511,3.944,3.462,5.288,5.854,1.342,2.392,2.015,5.435,2.015,9.127,0,4.28-1.26,7.932-3.777,10.953s-5.665,5.309-9.442,6.861c-3.776,1.552-7.638,2.329-11.582,2.329-4.953,0-9.904-.861-14.855-2.581-4.953-1.719-9.064-4.763-12.338-9.127Z" fill="#233876"/>
  <path d="M-289.556,84.203c-12.227,0-22.139,9.912-22.139,22.139s9.912,22.139,22.139,22.139,22.139-9.912,22.139-22.139-9.912-22.139-22.139-22.139ZM-282.071,116.34h-3.014v-12.531c0-1.551-.377-2.765-1.13-3.642-.754-.877-1.783-1.316-3.089-1.316-.894,0-1.697.21-2.411.631s-1.278,1.034-1.69,1.839c-.413.806-.62,1.785-.62,2.939v12.08h-3.013v-20.158h2.896l.013,3.748c.527-1.269,1.198-2.219,2.021-2.829,1.055-.781,2.291-1.172,3.709-1.172,1.261,0,2.365.28,3.314.838.948.559,1.688,1.4,2.218,2.524s.796,2.539.796,4.246v12.802Z" fill="#0f9c89"/>
  <path d="M-90.546,84.203c-12.227,0-22.139,9.912-22.139,22.139s9.912,22.139,22.139,22.139,22.139-9.912,22.139-22.139-9.912-22.139-22.139-22.139ZM-83.062,116.34h-3.014v-12.531c0-1.551-.377-2.765-1.13-3.642-.754-.877-1.783-1.316-3.089-1.316-.894,0-1.697.21-2.411.631s-1.278,1.034-1.69,1.839c-.413.806-.62,1.785-.62,2.939v12.08h-3.013v-20.158h2.896l.013,3.748c.527-1.269,1.198-2.219,2.021-2.829,1.055-.781,2.291-1.172,3.709-1.172,1.261,0,2.365.28,3.314.838.948.559,1.688,1.4,2.218,2.524s.796,2.539.796,4.246v12.802Z" fill="#0f9c89"/>
  <g>
    <path d="M64.694,110.117c-6.732,0-12.575-1.405-17.523-4.218-4.951-2.811-8.753-6.633-11.406-11.465-2.654-4.831-3.98-10.296-3.98-16.396,0-7.128,1.444-13.206,4.337-18.237,2.891-5.029,6.672-8.89,11.347-11.583,4.672-2.692,9.623-4.04,14.851-4.04,4.04,0,7.86.832,11.466,2.495,3.603,1.664,6.79,3.941,9.563,6.832,2.771,2.893,4.97,6.238,6.594,10.04,1.623,3.802,2.436,7.841,2.436,12.119-.079,1.901-.831,3.445-2.257,4.633-1.426,1.188-3.089,1.782-4.99,1.782h-45.385l-3.564-11.881h43.603l-2.613,2.376v-3.208c-.16-2.296-.971-4.355-2.436-6.178-1.467-1.821-3.288-3.267-5.466-4.336-2.179-1.069-4.496-1.604-6.95-1.604-2.376,0-4.595.317-6.653.951-2.061.635-3.843,1.704-5.346,3.208-1.506,1.506-2.694,3.525-3.564,6.06-.873,2.536-1.308,5.744-1.308,9.624,0,4.277.892,7.901,2.674,10.871s4.078,5.228,6.891,6.772c2.811,1.544,5.802,2.317,8.971,2.317,2.929,0,5.267-.238,7.01-.713,1.741-.475,3.148-1.049,4.217-1.723,1.069-.672,2.039-1.248,2.911-1.723,1.426-.713,2.771-1.069,4.04-1.069,1.741,0,3.188.594,4.336,1.782,1.147,1.188,1.723,2.575,1.723,4.159,0,2.139-1.109,4.08-3.326,5.822-2.061,1.743-4.951,3.267-8.673,4.574-3.725,1.307-7.565,1.96-11.525,1.96Z" fill="#233876"/>
    <path d="M138.237,44.179c6.336,0,11.008,1.526,14.02,4.574,3.009,3.05,4.989,6.991,5.94,11.821l-2.021-1.069.951-1.901c.95-1.821,2.415-3.781,4.396-5.881,1.979-2.098,4.376-3.88,7.188-5.347,2.811-1.465,5.959-2.198,9.445-2.198,5.702,0,10.039,1.229,13.01,3.683,2.97,2.456,5.008,5.723,6.118,9.802,1.108,4.08,1.663,8.613,1.663,13.604v30.415c0,2.061-.674,3.784-2.02,5.168-1.348,1.387-3.05,2.079-5.108,2.079s-3.764-.692-5.109-2.079c-1.348-1.385-2.02-3.108-2.02-5.168v-30.415c0-2.614-.317-4.97-.95-7.069-.635-2.098-1.782-3.781-3.445-5.049-1.664-1.266-4.04-1.901-7.129-1.901-3.011,0-5.584.635-7.723,1.901-2.139,1.268-3.742,2.952-4.812,5.049-1.069,2.1-1.604,4.456-1.604,7.069v30.415c0,2.061-.674,3.784-2.02,5.168-1.348,1.387-3.05,2.079-5.108,2.079s-3.764-.692-5.109-2.079c-1.348-1.385-2.02-3.108-2.02-5.168v-30.415c0-2.614-.317-4.97-.95-7.069-.635-2.098-1.782-3.781-3.445-5.049-1.664-1.266-4.04-1.901-7.129-1.901-3.011,0-5.584.635-7.723,1.901-2.139,1.268-3.742,2.952-4.812,5.049-1.069,2.1-1.604,4.456-1.604,7.069v30.415c0,2.061-.674,3.784-2.02,5.168-1.348,1.387-3.05,2.079-5.108,2.079s-3.764-.692-5.109-2.079c-1.348-1.385-2.02-3.108-2.02-5.168v-49.068c0-2.059.672-3.781,2.02-5.168,1.346-1.385,3.049-2.079,5.109-2.079s3.761.694,5.108,2.079c1.346,1.387,2.02,3.109,2.02,5.168v5.109l-1.782-.356c.713-1.346,1.703-2.792,2.971-4.336,1.266-1.544,2.811-2.989,4.634-4.336,1.82-1.346,3.841-2.436,6.059-3.267,2.217-.832,4.634-1.248,7.248-1.248Z" fill="#233876"/>
    <path d="M247.303,44.179c5.543,0,10.515,1.407,14.91,4.218,4.396,2.812,7.881,6.673,10.456,11.583,2.572,4.912,3.861,10.615,3.861,17.109s-1.289,12.219-3.861,17.168c-2.575,4.951-6.021,8.833-10.337,11.643-4.317,2.812-9.169,4.218-14.554,4.218-3.169,0-6.14-.516-8.911-1.544-2.773-1.028-5.209-2.335-7.307-3.921-2.1-1.583-3.724-3.187-4.871-4.812-1.149-1.623-1.723-2.989-1.723-4.099l3.683-1.544v31.247c0,2.059-.674,3.781-2.02,5.168-1.348,1.385-3.05,2.079-5.108,2.079s-3.764-.674-5.109-2.02-2.02-3.089-2.02-5.228V52.614c0-2.059.672-3.781,2.02-5.168,1.346-1.385,3.049-2.079,5.109-2.079s3.761.694,5.108,2.079c1.346,1.387,2.02,3.109,2.02,5.168v5.822l-2.02-1.069c0-1.028.554-2.276,1.663-3.742,1.108-1.465,2.614-2.93,4.515-4.396,1.901-1.465,4.1-2.673,6.595-3.624,2.494-.95,5.127-1.425,7.9-1.425ZM245.521,57.247c-3.486,0-6.534.873-9.148,2.614-2.613,1.743-4.653,4.099-6.118,7.069-1.467,2.97-2.198,6.356-2.198,10.158,0,3.724.731,7.11,2.198,10.158,1.465,3.05,3.505,5.447,6.118,7.188,2.614,1.743,5.662,2.614,9.148,2.614s6.515-.871,9.089-2.614c2.573-1.741,4.593-4.138,6.06-7.188,1.465-3.048,2.198-6.435,2.198-10.158,0-3.802-.733-7.188-2.198-10.158-1.467-2.97-3.486-5.326-6.06-7.069-2.574-1.741-5.604-2.614-9.089-2.614Z" fill="#233876"/>
    <path d="M304.45,101.682c0,2.061-.694,3.784-2.079,5.168s-3.109,2.079-5.168,2.079c-1.981,0-3.645-.692-4.99-2.079-1.348-1.385-2.02-3.108-2.02-5.168V28.258c0-2.059.692-3.782,2.079-5.168s3.107-2.079,5.168-2.079,3.742.694,5.049,2.079c1.308,1.387,1.961,3.109,1.961,5.168v73.424Z" fill="#233876"/>
    <path d="M381.556,77.207c0,6.496-1.446,12.219-4.337,17.168-2.892,4.951-6.771,8.812-11.643,11.584-4.872,2.773-10.318,4.158-16.337,4.158s-11.465-1.385-16.336-4.158c-4.871-2.771-8.753-6.633-11.644-11.584-2.893-4.949-4.337-10.672-4.337-17.168s1.444-12.217,4.337-17.168c2.891-4.949,6.772-8.831,11.644-11.643,4.871-2.811,10.315-4.218,16.336-4.218s11.465,1.407,16.337,4.218c4.871,2.812,8.751,6.694,11.643,11.643,2.891,4.951,4.337,10.674,4.337,17.168ZM367.299,77.207c0-4.04-.813-7.544-2.436-10.515-1.625-2.97-3.803-5.287-6.535-6.95-2.732-1.664-5.762-2.495-9.089-2.495s-6.356.832-9.089,2.495c-2.732,1.663-4.912,3.98-6.534,6.95-1.625,2.97-2.436,6.475-2.436,10.515,0,3.961.811,7.426,2.436,10.396,1.622,2.97,3.802,5.287,6.534,6.95,2.732,1.664,5.763,2.495,9.089,2.495s6.356-.832,9.089-2.495c2.732-1.663,4.91-3.98,6.535-6.95,1.622-2.97,2.436-6.435,2.436-10.396Z" fill="#233876"/>
    <path d="M441.198,45.367c2.059,0,3.762.694,5.109,2.079,1.346,1.387,2.02,3.109,2.02,5.168v50.494c0,7.287-1.366,13.088-4.099,17.406-2.733,4.316-6.397,7.425-10.99,9.327-4.595,1.901-9.742,2.851-15.445,2.851-2.536,0-5.228-.198-8.079-.594-2.852-.397-5.188-.991-7.01-1.782-2.376-1.03-4.021-2.317-4.931-3.861-.911-1.544-1.09-3.189-.534-4.931.713-2.298,1.86-3.861,3.445-4.693,1.583-.832,3.247-.932,4.99-.297,1.266.395,2.929,1.01,4.989,1.841,2.06.832,4.436,1.248,7.129,1.248,3.643,0,6.672-.496,9.089-1.485,2.415-.991,4.236-2.654,5.466-4.99,1.227-2.337,1.841-5.525,1.841-9.564v-7.96l2.495,2.852c-1.348,2.614-3.029,4.772-5.049,6.475-2.021,1.704-4.417,2.991-7.188,3.861-2.773.871-5.94,1.307-9.505,1.307-4.199,0-7.861-.971-10.989-2.911-3.13-1.94-5.565-4.634-7.308-8.079s-2.613-7.385-2.613-11.822v-34.692c0-2.059.672-3.781,2.02-5.168,1.346-1.385,3.049-2.079,5.109-2.079s3.761.694,5.108,2.079c1.346,1.387,2.02,3.109,2.02,5.168v30.416c0,5.149,1.129,8.773,3.387,10.871,2.257,2.1,5.405,3.148,9.445,3.148,2.771,0,5.108-.535,7.01-1.604,1.9-1.069,3.365-2.653,4.396-4.752,1.028-2.098,1.545-4.652,1.545-7.663v-30.416c0-2.059.672-3.781,2.02-5.168,1.346-1.385,3.048-2.079,5.108-2.079Z" fill="#233876"/>
    <path d="M497.157,44.179c6.336,0,11.008,1.526,14.02,4.574,3.009,3.05,4.989,6.991,5.94,11.821l-2.021-1.069.951-1.901c.95-1.821,2.415-3.781,4.396-5.881,1.979-2.098,4.376-3.88,7.188-5.347,2.811-1.465,5.959-2.198,9.445-2.198,5.702,0,10.039,1.229,13.01,3.683,2.97,2.456,5.008,5.723,6.118,9.802,1.108,4.08,1.663,8.613,1.663,13.604v30.415c0,2.061-.674,3.784-2.02,5.168-1.348,1.387-3.05,2.079-5.108,2.079s-3.764-.692-5.109-2.079c-1.348-1.385-2.02-3.108-2.02-5.168v-30.415c0-2.614-.317-4.97-.95-7.069-.635-2.098-1.782-3.781-3.445-5.049-1.664-1.266-4.04-1.901-7.129-1.901-3.011,0-5.584.635-7.723,1.901-2.139,1.268-3.742,2.952-4.812,5.049-1.069,2.1-1.604,4.456-1.604,7.069v30.415c0,2.061-.674,3.784-2.02,5.168-1.348,1.387-3.05,2.079-5.108,2.079s-3.764-.692-5.109-2.079c-1.348-1.385-2.02-3.108-2.02-5.168v-30.415c0-2.614-.317-4.97-.95-7.069-.635-2.098-1.782-3.781-3.445-5.049-1.664-1.266-4.04-1.901-7.129-1.901-3.011,0-5.584.635-7.723,1.901-2.139,1.268-3.742,2.952-4.812,5.049-1.069,2.1-1.604,4.456-1.604,7.069v30.415c0,2.061-.674,3.784-2.02,5.168-1.348,1.387-3.05,2.079-5.108,2.079s-3.764-.692-5.109-2.079c-1.348-1.385-2.02-3.108-2.02-5.168v-49.068c0-2.059.672-3.781,2.02-5.168,1.346-1.385,3.049-2.079,5.109-2.079s3.761.694,5.108,2.079c1.346,1.387,2.02,3.109,2.02,5.168v5.109l-1.782-.356c.713-1.346,1.703-2.792,2.971-4.336,1.266-1.544,2.811-2.989,4.634-4.336,1.82-1.346,3.841-2.436,6.059-3.267,2.217-.832,4.634-1.248,7.248-1.248Z" fill="#233876"/>
    <path d="M603.252,110.117c-6.732,0-12.575-1.405-17.523-4.218-4.951-2.811-8.753-6.633-11.406-11.465-2.654-4.831-3.98-10.296-3.98-16.396,0-7.128,1.444-13.206,4.337-18.237,2.891-5.029,6.672-8.89,11.347-11.583,4.672-2.692,9.623-4.04,14.851-4.04,4.04,0,7.86.832,11.466,2.495,3.603,1.664,6.79,3.941,9.563,6.832,2.771,2.893,4.97,6.238,6.594,10.04,1.623,3.802,2.436,7.841,2.436,12.119-.079,1.901-.831,3.445-2.257,4.633-1.426,1.188-3.089,1.782-4.99,1.782h-45.385l-3.564-11.881h43.603l-2.613,2.376v-3.208c-.16-2.296-.971-4.355-2.436-6.178-1.467-1.821-3.288-3.267-5.466-4.336-2.179-1.069-4.496-1.604-6.95-1.604-2.376,0-4.595.317-6.653.951-2.061.635-3.843,1.704-5.346,3.208-1.506,1.506-2.694,3.525-3.564,6.06-.873,2.536-1.308,5.744-1.308,9.624,0,4.277.892,7.901,2.674,10.871s4.078,5.228,6.891,6.772c2.811,1.544,5.802,2.317,8.971,2.317,2.929,0,5.267-.238,7.01-.713,1.741-.475,3.148-1.049,4.217-1.723,1.069-.672,2.039-1.248,2.911-1.723,1.426-.713,2.771-1.069,4.04-1.069,1.741,0,3.188.594,4.336,1.782,1.147,1.188,1.723,2.575,1.723,4.159,0,2.139-1.109,4.08-3.326,5.822-2.061,1.743-4.951,3.267-8.673,4.574-3.725,1.307-7.565,1.96-11.525,1.96Z" fill="#233876"/>
    <path d="M677.389,44.179c5.86,0,10.316,1.229,13.366,3.683,3.048,2.456,5.147,5.723,6.297,9.802,1.147,4.08,1.723,8.613,1.723,13.604v30.415c0,2.061-.674,3.784-2.02,5.168-1.348,1.387-3.051,2.079-5.109,2.079s-3.763-.692-5.108-2.079c-1.348-1.385-2.02-3.108-2.02-5.168v-30.415c0-2.614-.338-4.97-1.01-7.069-.675-2.098-1.883-3.781-3.624-5.049-1.743-1.266-4.238-1.901-7.485-1.901-3.169,0-5.842.635-8.02,1.901-2.18,1.268-3.843,2.952-4.99,5.049-1.148,2.1-1.723,4.456-1.723,7.069v30.415c0,2.061-.674,3.784-2.02,5.168-1.348,1.387-3.05,2.079-5.108,2.079s-3.764-.692-5.109-2.079c-1.348-1.385-2.02-3.108-2.02-5.168v-49.068c0-2.059.672-3.781,2.02-5.168,1.346-1.385,3.049-2.079,5.109-2.079s3.761.694,5.108,2.079c1.346,1.387,2.02,3.109,2.02,5.168v5.109l-1.782-.356c.713-1.346,1.741-2.792,3.09-4.336,1.346-1.544,2.929-2.989,4.752-4.336,1.821-1.346,3.88-2.436,6.178-3.267,2.297-.832,4.792-1.248,7.485-1.248Z" fill="#233876"/>
    <path d="M714.932,46.554h28.158c1.9,0,3.484.635,4.752,1.901,1.266,1.268,1.901,2.852,1.901,4.752,0,1.823-.636,3.347-1.901,4.574-1.268,1.229-2.852,1.841-4.752,1.841h-28.158c-1.901,0-3.486-.633-4.753-1.901-1.268-1.266-1.9-2.851-1.9-4.752,0-1.821.633-3.345,1.9-4.574,1.267-1.228,2.852-1.842,4.753-1.842ZM727.645,31.703c2.059,0,3.742.694,5.049,2.079,1.307,1.387,1.961,3.109,1.961,5.168v52.871c0,1.11.217,2.02.653,2.732.435.713,1.028,1.229,1.782,1.544.752.317,1.562.476,2.436.476.95,0,1.821-.178,2.613-.535.791-.356,1.702-.535,2.732-.535,1.108,0,2.118.516,3.03,1.544.909,1.03,1.366,2.456,1.366,4.277,0,2.219-1.209,4.04-3.624,5.465-2.417,1.426-5.01,2.139-7.782,2.139-1.663,0-3.505-.137-5.524-.416-2.02-.276-3.921-.95-5.702-2.02-1.782-1.069-3.268-2.712-4.456-4.931-1.188-2.216-1.782-5.267-1.782-9.148v-53.464c0-2.059.692-3.781,2.079-5.168,1.386-1.385,3.108-2.079,5.169-2.079Z" fill="#233876"/>
  </g>
</svg>