<?xml version="1.0" encoding="UTF-8"?><svg id="b" xmlns="http://www.w3.org/2000/svg" viewBox="0 0 310.59 141.4"><style>.logo-primary { fill: var(--color-primary, #233876); } .logo-secondary { fill: var(--color-secondary, #0f9d8a); }</style><g id="c"><path d="M185.45,119.59c-.08-.89-.26-1.7-.56-2.44-.4-1-1-1.78-1.79-2.34-.79-.56-1.78-.85-2.95-.85s-2.19.29-3.02.87-1.48,1.33-1.92,2.25c-.38.79-.58,1.63-.64,2.51h10.89Z" class="logo-secondary"/><path d="M286.17,97.12h-137.51c-12.23,0-22.14,9.91-22.14,22.14s9.91,22.14,22.14,22.14h137.51c12.23,0,22.14-9.91,22.14-22.14s-9.91-22.14-22.14-22.14ZM166.77,130.95h-3.15v-12.15c0-1.5-.39-2.68-1.18-3.53s-1.86-1.28-3.23-1.28c-.93,0-1.77.2-2.52.61-.75.41-1.33,1-1.77,1.78-.43.78-.65,1.73-.65,2.85v11.71h-3.15v-19.54h3.02v3.63c.56-1.23,1.26-2.15,2.12-2.74,1.1-.76,2.39-1.14,3.87-1.14,1.32,0,2.47.27,3.46.81.99.54,1.76,1.36,2.32,2.45.55,1.09.83,2.46.83,4.12v12.41ZM188.66,122.25h-14.1c.05,1.26.28,2.35.73,3.26.5,1.01,1.2,1.77,2.11,2.29.9.52,1.95.78,3.14.78.77,0,1.47-.11,2.1-.33.63-.22,1.17-.56,1.62-1.01.46-.45.8-1,1.05-1.67l3.04.84c-.3.98-.82,1.84-1.54,2.59-.72.75-1.62,1.33-2.68,1.75-1.07.42-2.27.63-3.61.63-1.89,0-3.52-.42-4.89-1.26-1.37-.84-2.42-2.01-3.16-3.51-.74-1.5-1.11-3.26-1.11-5.26s.36-3.77,1.08-5.3,1.75-2.72,3.07-3.58c1.32-.86,2.87-1.29,4.64-1.29,1.04,0,2.06.17,3.07.52,1.01.34,1.92.9,2.74,1.66.82.76,1.48,1.77,1.97,3.01.49,1.25.73,2.77.73,4.58v1.31ZM200.29,131.11c-.41.06-.82.09-1.23.09-1.69,0-3.01-.45-3.95-1.34-.94-.89-1.42-2.13-1.42-3.73v-12.03h-2.94v-2.69h2.94v-4.65h3.15v4.65h4.02v2.69h-4.02v11.78c0,.87.18,1.51.53,1.91.35.4.95.6,1.77.6.2,0,.45-.02.76-.07.31-.05.59-.09.85-.14l.65,2.66c-.33.12-.7.2-1.11.26ZM224.79,130.95h-3.13l-2.54-8.84c-.26-.9-.51-1.81-.75-2.74-.24-.93-.48-1.89-.72-2.87-.12-.5-.24-1.01-.37-1.52-.12.51-.24,1.01-.36,1.51-.24.98-.48,1.95-.72,2.89-.25.94-.5,1.85-.75,2.73l-2.54,8.84h-3.13l-5.93-19.54h3.34l2.38,8.53c.33,1.17.68,2.48,1.05,3.96.28,1.11.56,2.33.83,3.65.26-1.26.53-2.44.79-3.54.36-1.48.71-2.84,1.05-4.07l2.34-8.53h3.36l2.31,8.53c.33,1.2.67,2.54,1.02,4.01.26,1.1.53,2.29.79,3.58.28-1.27.55-2.46.82-3.55.37-1.47.72-2.82,1.06-4.05l2.38-8.53h3.34l-5.93,19.54ZM249.82,126.58c-.75,1.52-1.79,2.69-3.13,3.53s-2.9,1.26-4.68,1.26-3.32-.42-4.66-1.26-2.37-2.02-3.12-3.53c-.75-1.51-1.12-3.27-1.12-5.28s.37-3.82,1.12-5.34c.75-1.52,1.79-2.7,3.12-3.54s2.89-1.26,4.66-1.26,3.34.42,4.68,1.26,2.38,2.02,3.13,3.54c.75,1.52,1.12,3.3,1.12,5.34s-.37,3.76-1.12,5.28ZM265.43,114.35c-.09-.02-.33-.06-.7-.11-.37-.05-.77-.07-1.19-.07-.93,0-1.77.2-2.51.59-.74.39-1.32.93-1.74,1.61-.42.68-.63,1.47-.63,2.35v12.24h-3.15v-19.54h3.04v3.01h.21c.36-.99,1-1.79,1.93-2.39.93-.6,1.97-.9,3.14-.9.23,0,.51,0,.83.02.32.01.57.02.76.04v3.16ZM281.91,130.95l-7.15-9.14-2.06,1.93v7.21h-3.15v-26.04h3.15v15.12h.38l8.35-8.62h3.9l-8.17,8.39,8.78,11.15h-4.04Z" class="logo-secondary"/><path d="M245.26,115c-.85-.68-1.93-1.02-3.25-1.02s-2.38.34-3.22,1.02-1.46,1.58-1.87,2.68c-.41,1.11-.61,2.31-.61,3.62s.2,2.47.61,3.57c.41,1.1,1.03,1.99,1.87,2.67s1.91,1.01,3.22,1.01,2.4-.34,3.25-1.01,1.48-1.56,1.89-2.67c.41-1.1.61-2.29.61-3.57s-.2-2.5-.61-3.61c-.41-1.11-1.04-2.01-1.89-2.69Z" class="logo-secondary"/><path d="M1.14,82.71c-.84-1.17-1.22-2.69-1.13-4.53.08-1.85,1.17-3.44,3.27-4.78,1.34-.84,2.77-1.2,4.28-1.07s2.98.9,4.41,2.33c2.43,2.44,4.99,4.32,7.68,5.67,2.68,1.34,6.04,2.01,10.07,2.01,1.26-.08,2.64-.27,4.15-.57,1.51-.29,2.83-.96,3.97-2.01,1.13-1.05,1.7-2.66,1.7-4.85,0-1.85-.63-3.31-1.89-4.41-1.26-1.09-2.92-2.01-4.97-2.77-2.06-.76-4.34-1.47-6.86-2.14-2.6-.76-5.27-1.59-7.99-2.52-2.73-.92-5.22-2.12-7.49-3.59-2.27-1.47-4.11-3.42-5.54-5.85-1.43-2.43-2.14-5.5-2.14-9.19,0-4.2,1.17-7.76,3.53-10.7,2.35-2.94,5.39-5.2,9.13-6.8,3.73-1.59,7.66-2.39,11.77-2.39,2.6,0,5.33.31,8.18.94,2.85.63,5.58,1.64,8.18,3.02,2.6,1.38,4.78,3.21,6.55,5.48.92,1.26,1.47,2.77,1.64,4.53.17,1.76-.63,3.36-2.39,4.78-1.26,1.01-2.73,1.45-4.41,1.32-1.68-.13-3.06-.69-4.15-1.7-1.43-1.85-3.34-3.31-5.73-4.41-2.39-1.09-5.14-1.64-8.25-1.64-1.26,0-2.62.15-4.09.44-1.47.3-2.75.92-3.84,1.89-1.09.97-1.64,2.5-1.64,4.6,0,1.93.63,3.46,1.89,4.6,1.26,1.13,2.96,2.06,5.1,2.77,2.14.71,4.43,1.41,6.86,2.08,2.52.67,5.08,1.47,7.68,2.39,2.6.92,4.99,2.14,7.18,3.65,2.18,1.51,3.94,3.46,5.29,5.85,1.34,2.39,2.01,5.44,2.01,9.13,0,4.28-1.26,7.93-3.78,10.95s-5.67,5.31-9.44,6.86c-3.78,1.55-7.64,2.33-11.58,2.33-4.95,0-9.9-.86-14.86-2.58-4.95-1.72-9.06-4.76-12.34-9.13Z" class="logo-primary"/><path d="M100.6,24.55c5.87,0,11.14,1.49,15.8,4.47,4.66,2.98,8.35,7.07,11.08,12.27,2.73,5.21,4.09,11.25,4.09,18.13s-1.37,12.95-4.09,18.19c-2.73,5.25-6.38,9.36-10.95,12.34-4.58,2.98-9.71,4.47-15.42,4.47-3.36,0-6.5-.55-9.44-1.64-2.94-1.09-5.52-2.48-7.74-4.15-2.22-1.68-3.95-3.38-5.16-5.1-1.22-1.72-1.83-3.17-1.83-4.34l3.9-1.64v33.11c0,2.18-.71,4.01-2.14,5.48-1.43,1.47-3.23,2.2-5.41,2.2s-3.99-.71-5.41-2.14c-1.43-1.43-2.14-3.27-2.14-5.54V33.49c0-2.18.71-4.01,2.14-5.48,1.43-1.47,3.23-2.2,5.41-2.2s3.99.74,5.41,2.2c1.43,1.47,2.14,3.29,2.14,5.48v6.17l-2.14-1.13c0-1.09.59-2.41,1.76-3.97,1.17-1.55,2.77-3.1,4.78-4.66,2.01-1.55,4.34-2.83,6.99-3.84,2.64-1.01,5.43-1.51,8.37-1.51ZM98.71,38.4c-3.69,0-6.92.92-9.69,2.77-2.77,1.85-4.93,4.34-6.48,7.49-1.55,3.15-2.33,6.74-2.33,10.76s.78,7.53,2.33,10.76c1.55,3.23,3.71,5.77,6.48,7.62,2.77,1.85,6,2.77,9.69,2.77s6.9-.92,9.63-2.77c2.73-1.84,4.87-4.38,6.42-7.62,1.55-3.23,2.33-6.82,2.33-10.76s-.78-7.62-2.33-10.76c-1.55-3.15-3.69-5.64-6.42-7.49-2.73-1.85-5.94-2.77-9.63-2.77Z" class="logo-primary"/><path d="M161.16,85.48c0,2.18-.74,4.01-2.2,5.48-1.47,1.47-3.29,2.2-5.48,2.2s-3.86-.73-5.29-2.2c-1.43-1.47-2.14-3.29-2.14-5.48V7.68c0-2.18.73-4.01,2.2-5.48,1.47-1.47,3.29-2.2,5.48-2.2s3.96.74,5.35,2.2c1.38,1.47,2.08,3.29,2.08,5.48v77.8Z" class="logo-primary"/><path d="M185.33,17.63c-2.85,0-4.87-.46-6.04-1.39-1.18-.92-1.76-2.56-1.76-4.91v-2.39c0-2.43.65-4.09,1.95-4.97,1.3-.88,3.29-1.32,5.98-1.32,2.94,0,4.99.46,6.17,1.39,1.17.92,1.76,2.56,1.76,4.91v2.39c0,2.44-.63,4.09-1.89,4.97s-3.32,1.32-6.17,1.32ZM193,85.48c0,2.18-.71,4.01-2.14,5.48-1.43,1.47-3.23,2.2-5.41,2.2s-3.99-.73-5.41-2.2c-1.43-1.47-2.14-3.29-2.14-5.48v-51.99c0-2.18.71-4.01,2.14-5.48,1.43-1.47,3.23-2.2,5.41-2.2s3.99.74,5.41,2.2c1.43,1.47,2.14,3.29,2.14,5.48v51.99Z" class="logo-primary"/><path d="M209.24,27.07h29.84c2.01,0,3.69.67,5.04,2.01,1.34,1.34,2.01,3.02,2.01,5.04s-.67,3.55-2.01,4.85c-1.34,1.3-3.02,1.95-5.04,1.95h-29.84c-2.01,0-3.69-.67-5.04-2.01-1.34-1.34-2.01-3.02-2.01-5.04s.67-3.54,2.01-4.85c1.34-1.3,3.02-1.95,5.04-1.95ZM222.71,11.33c2.18,0,3.97.74,5.35,2.2,1.38,1.47,2.08,3.29,2.08,5.48v56.02c0,1.18.23,2.14.69,2.9.46.76,1.09,1.3,1.89,1.64.8.34,1.66.5,2.58.5,1.01,0,1.93-.19,2.77-.57.84-.38,1.8-.57,2.9-.57,1.17,0,2.24.55,3.21,1.64.96,1.09,1.45,2.6,1.45,4.53,0,2.35-1.28,4.28-3.84,5.79-2.56,1.51-5.31,2.27-8.25,2.27-1.76,0-3.71-.15-5.85-.44-2.14-.29-4.15-1.01-6.04-2.14-1.89-1.13-3.46-2.87-4.72-5.22-1.26-2.35-1.89-5.58-1.89-9.69V19.01c0-2.18.73-4.01,2.2-5.48,1.47-1.47,3.29-2.2,5.48-2.2Z" class="logo-primary"/><path d="M258.59,82.71c-.84-1.17-1.22-2.69-1.13-4.53.08-1.85,1.17-3.44,3.27-4.78,1.34-.84,2.77-1.2,4.28-1.07s2.98.9,4.41,2.33c2.43,2.44,4.99,4.32,7.68,5.67,2.68,1.34,6.04,2.01,10.07,2.01,1.26-.08,2.64-.27,4.15-.57,1.51-.29,2.83-.96,3.97-2.01,1.13-1.05,1.7-2.66,1.7-4.85,0-1.85-.63-3.31-1.89-4.41-1.26-1.09-2.92-2.01-4.97-2.77-2.06-.76-4.34-1.47-6.86-2.14-2.6-.76-5.27-1.59-7.99-2.52-2.73-.92-5.22-2.12-7.49-3.59-2.27-1.47-4.11-3.42-5.54-5.85-1.43-2.43-2.14-5.5-2.14-9.19,0-4.2,1.17-7.76,3.53-10.7,2.35-2.94,5.39-5.2,9.13-6.8,3.73-1.59,7.66-2.39,11.77-2.39,2.6,0,5.33.31,8.18.94,2.85.63,5.58,1.64,8.18,3.02,2.6,1.38,4.78,3.21,6.55,5.48.92,1.26,1.47,2.77,1.64,4.53.17,1.76-.63,3.36-2.39,4.78-1.26,1.01-2.73,1.45-4.41,1.32-1.68-.13-3.06-.69-4.15-1.7-1.43-1.85-3.34-3.31-5.73-4.41-2.39-1.09-5.14-1.64-8.25-1.64-1.26,0-2.62.15-4.09.44-1.47.3-2.75.92-3.84,1.89-1.09.97-1.64,2.5-1.64,4.6,0,1.93.63,3.46,1.89,4.6,1.26,1.13,2.96,2.06,5.1,2.77,2.14.71,4.43,1.41,6.86,2.08,2.52.67,5.08,1.47,7.68,2.39,2.6.92,4.99,2.14,7.18,3.65,2.18,1.51,3.94,3.46,5.29,5.85,1.34,2.39,2.01,5.44,2.01,9.13,0,4.28-1.26,7.93-3.78,10.95s-5.67,5.31-9.44,6.86c-3.78,1.55-7.64,2.33-11.58,2.33-4.95,0-9.9-.86-14.86-2.58-4.95-1.72-9.06-4.76-12.34-9.13Z" class="logo-primary"/></g></svg>